# xmcd
#
# Track frame offsets:
#	150
#	12856
#	22131
#	36765
#	47272
#	56676
#	68295
#	83635
#	93861
#	107442
#	119280
#	129685
#	141664
#	150967
#	162938
#	174228
#	187016
#	197723
#	206990
#	216142
#	227765
#	237250
#	248373
#	256922
#	269540
#
# Disc length: 3768 seconds
#
# Revision: 1
# Processed by: cddbd v1.5.2PL0 Copyright (c) Steve Scherf et al.
# Submitted via: audiograbber 1.83.01
#
DISCID=4e0eb619
DTITLE=Various Artist - Louisiana Swamp Blues 2 CD B
DYEAR=2017
DGENRE=Blues
TTITLE0=Nathan Abshire - Pine Grove Blues
TTITLE1=Lonesome Sundown - I'm Glad She's Mine
TTITLE2=Lightnin' Slim - I'm Him
TTITLE3=Clarence Garlow - Train Came Down The Track Alt.
TTITLE4=Boogie Ramblers - Cindy Lou
TTITLE5=Guitar Jr.  - Broken Hearted Rollin' Tears
TTITLE6=Cleveland Crochet - Midnight Blues
TTITLE7=Schoolboy Cleve - She's Gone
TTITLE8=Country Jim - Stormin' And Rainin'
TTITLE9=Leroy Washington - Women Are Trouble
TTITLE10=Jay Stutes - Coming Home
TTITLE11=Pete McKinley - Whistling Blues
TTITLE12=Lonesome Sundown - My Home Ain't Here
TTITLE13=Vince Monroe - If I Had My Life To Live Over
TTITLE14=Charles Sheffield - One Hour Thirty Minutes Too Long
TTITLE15=Leroy Washington - My True Life
TTITLE16=Lionel Torrence - Flim Flam
TTITLE17=Bill Parker Band - Too Much
TTITLE18=Tabby Thomas - Don't Say
TTITLE19=Cookie and The Cupcakes - Got You On My Mind
TTITLE20=Guitar Jr.  - Goin' Crazy Baby
TTITLE21=Lightnin' Slim - West Texas
TTITLE22=Texas Melody Boys - Ain't No More
TTITLE23=Nathan Abshire - Step It Fast
TTITLE24=Jake Johnson - Somebody Tell Me
EXTD=
EXTT0=
EXTT1=
EXTT2=
EXTT3=
EXTT4=
EXTT5=
EXTT6=
EXTT7=
EXTT8=
EXTT9=
EXTT10=
EXTT11=
EXTT12=
EXTT13=
EXTT14=
EXTT15=
EXTT16=
EXTT17=
EXTT18=
EXTT19=
EXTT20=
EXTT21=
EXTT22=
EXTT23=
EXTT24=
PLAYORDER=
